<svg width="296" height="296" viewBox="0 0 296 296" fill="none" xmlns="http://www.w3.org/2000/svg">
<rect width="296" height="296" fill="#FFFDF7"/>
<path d="M227.733 173.855C216.028 189.965 197.037 200.439 175.6 200.439C140.135 200.439 111.367 171.773 111.202 136.347H111.2V136.346H111.199V55.999H123.467V136.039L123.471 136.713C123.831 165.195 147.032 188.173 175.6 188.173C204.167 188.173 227.369 165.195 227.729 136.713L227.733 136.039V56H240V240H227.733V173.855Z" fill="#191919"/>
<g filter="url(#filter0_d_473_1100)">
<path d="M68.2666 122.145C79.9725 106.035 98.9633 95.5605 120.4 95.5605C155.865 95.5608 184.633 124.227 184.798 159.653H184.8V159.654H184.801V240.001H172.533V159.961L172.529 159.287C172.169 130.805 148.968 107.827 120.4 107.827C91.8328 107.827 68.6311 130.805 68.2705 159.287L68.2666 159.961V240H56V56H68.2666V122.145Z" fill="#191919"/>
</g>
<defs>
<filter id="filter0_d_473_1100" x="44.5" y="44.5" width="151.801" height="207.001" filterUnits="userSpaceOnUse" color-interpolation-filters="sRGB">
<feFlood flood-opacity="0" result="BackgroundImageFix"/>
<feColorMatrix in="SourceAlpha" type="matrix" values="0 0 0 0 0 0 0 0 0 0 0 0 0 0 0 0 0 0 127 0" result="hardAlpha"/>
<feOffset/>
<feGaussianBlur stdDeviation="5.75"/>
<feColorMatrix type="matrix" values="0 0 0 0 1 0 0 0 0 1 0 0 0 0 1 0 0 0 0.297344 0"/>
<feBlend mode="normal" in2="BackgroundImageFix" result="effect1_dropShadow_473_1100"/>
<feBlend mode="normal" in="SourceGraphic" in2="effect1_dropShadow_473_1100" result="shape"/>
</filter>
</defs>
</svg>
