<svg width="32" height="32" viewBox="0 0 32 32" fill="none" xmlns="http://www.w3.org/2000/svg">
<path d="M10 21C12.7614 21 15 18.7614 15 16C15 13.2386 12.7614 11 10 11C7.23858 11 5 13.2386 5 16C5 18.7614 7.23858 21 10 21Z" stroke="#DBC093"/>
<path d="M22 21C24.7614 21 27 18.7614 27 16C27 13.2386 24.7614 11 22 11C19.2386 11 17 13.2386 17 16C17 18.7614 19.2386 21 22 21Z" stroke="#DBC093"/>
<path d="M16 15C18.7614 15 21 12.7614 21 10C21 7.23858 18.7614 5 16 5C13.2386 5 11 7.23858 11 10C11 12.7614 13.2386 15 16 15Z" stroke="#DBC093"/>
</svg>
