<svg width="32" height="32" viewBox="0 0 32 32" fill="none" xmlns="http://www.w3.org/2000/svg">
<path d="M16 19C17.6569 19 19 17.6569 19 16C19 14.3431 17.6569 13 16 13C14.3431 13 13 14.3431 13 16C13 17.6569 14.3431 19 16 19Z" stroke="#DBC093"/>
<path d="M6 12C7.10457 12 8 11.1046 8 10C8 8.89543 7.10457 8 6 8C4.89543 8 4 8.89543 4 10C4 11.1046 4.89543 12 6 12Z" stroke="#DBC093"/>
<path d="M26 12C27.1046 12 28 11.1046 28 10C28 8.89543 27.1046 8 26 8C24.8954 8 24 8.89543 24 10C24 11.1046 24.8954 12 26 12Z" stroke="#DBC093"/>
<path d="M6 24C7.10457 24 8 23.1046 8 22C8 20.8954 7.10457 20 6 20C4.89543 20 4 20.8954 4 22C4 23.1046 4.89543 24 6 24Z" stroke="#DBC093"/>
<path d="M26 24C27.1046 24 28 23.1046 28 22C28 20.8954 27.1046 20 26 20C24.8954 20 24 20.8954 24 22C24 23.1046 24.8954 24 26 24Z" stroke="#DBC093"/>
<path d="M8 11L14 14" stroke="#DBC093"/>
<path d="M24 11L18 14" stroke="#DBC093"/>
<path d="M8 21L14 18" stroke="#DBC093"/>
<path d="M24 21L18 18" stroke="#DBC093"/>
</svg>
