<svg xmlns="http://www.w3.org/2000/svg" viewBox="0 0 512 512" width="512" height="512">
  <style>
    path { fill: #191919; }
    @media (prefers-color-scheme: dark) {
      path { fill: #FFFDF7; }
    }
  </style>
  <path d="M434.393 313.85C408.203 349.893 365.714 373.328 317.752 373.328C238.404 373.328 174.039 309.189 173.67 229.928H173.667V229.397C173.667 229.345 173.666 229.293 173.666 229.242H173.667V50.1606H201.111V229.393C201.193 293.743 253.383 345.882 317.752 345.882C381.668 345.882 433.576 294.474 434.383 230.75L434.393 229.242V50.1626H461.838V461.837H434.393V313.85Z"/>
  <path d="M77.6074 198.152C103.797 162.108 146.286 138.673 194.248 138.673C273.596 138.673 337.96 202.812 338.33 282.073H338.332V282.448C338.333 282.552 338.334 282.655 338.334 282.759H338.332V461.837H338.331V461.839H310.887V282.306C310.642 218.095 258.516 166.118 194.248 166.118C129.829 166.118 77.6075 218.34 77.6074 282.759V461.837H50.1621V50.1633H77.6074V198.152Z"/>
</svg>
